# xmcd CD database file
#
# Track frame offsets:
#	182
#	21755
#	49232
#	69362
#	95760
#	119740
#	145227
#	166717
#	187432
#	208665
#
# Disc length: 3148 seconds
#
# Revision: 0
# Processed by: cddbd v1.4PL0 Copyright (c) Steve Scherf et al.
# Submitted via: CDex 1.50beta10
#
DISCID=980c4a0a
DTITLE=Varios - Fiesta Cubana - ¿Son o Salsa?
DYEAR=1991
DGENRE=Salsa
TTITLE0=NG La Banda - Los Sitios Enteros
TTITLE1=Juan Carlos y el Dan Den - Solve
TTITLE2=Orquesta Reve - Suave Suavito
TTITLE3=Los Van Van - Aqui El Que Baila Gana
TTITLE4=Orquesta Aragon - Con Tremenda Sabrosura
TTITLE5=Adalberto Alvarez y Su Son - Meneame La Cuna
TTITLE6=Orquesta Reve - En El Cachumbambe
TTITLE7=Orquesta Los Van Van - Bailando Mojao
TTITLE8=Orquesta Original de Manzanillo - ¿Quien Ha Visto Por Ahi Mi Sombrero de Yarey?
TTITLE9=NG La Banda - No Se Puede Tapar El Sol
EXTD=YEAR: 1991
EXTT0=
EXTT1=
EXTT2=
EXTT3=
EXTT4=
EXTT5=
EXTT6=
EXTT7=
EXTT8=
EXTT9=
PLAYORDER=
